<svg width="306" height="95" viewBox="0 0 306 95" fill="none" xmlns="http://www.w3.org/2000/svg">
<path d="M40.4385 26.0781L55.7783 64.3633L71.1182 26.0781H79.1426V73H72.9551V54.7275L73.5352 35.0049L58.1309 73H53.3936L38.0215 35.1016L38.6338 54.7275V73H32.4463V26.0781H40.4385Z" fill="#333"/>
<path d="M31.5586 87.9711L8.17442 50L31.5586 12.0289H78.4414L101.826 50L78.4414 87.9711H31.5586Z" stroke="#333" stroke-width="2"/>
<path d="M1 50L24 12" stroke="#333"/>
<path d="M1 50L24 87.5" stroke="#333"/>
<path d="M109 50L86 12.5" stroke="#333"/>
<path d="M109 50L86 87.5" stroke="#333"/>
<path d="M124.031 73.53C121.593 73.53 119.703 73.3003 118.36 72.841C117.053 72.3817 116.099 71.569 115.498 70.403C114.933 69.237 114.65 67.5587 114.65 65.368C114.65 63.4247 114.915 61.923 115.445 60.863C116.01 59.7677 116.947 58.9903 118.254 58.531C119.597 58.0717 121.487 57.842 123.925 57.842H131.61V53.761C131.61 52.807 131.416 52.0827 131.027 51.588C130.674 51.058 130.055 50.687 129.172 50.475C128.324 50.263 127.07 50.157 125.409 50.157C122.759 50.157 119.826 50.369 116.611 50.793V47.295C120.109 46.977 123.271 46.818 126.098 46.818C129.066 46.818 131.257 47.0477 132.67 47.507C134.083 47.931 135.055 48.6907 135.585 49.786C136.115 50.8813 136.38 52.5773 136.38 54.874V73H131.769V70.562C131.38 72.5407 128.801 73.53 124.031 73.53ZM124.826 70.403C126.557 70.403 128.024 70.2793 129.225 70.032C130.815 69.714 131.61 68.972 131.61 67.806V60.81H124.243C122.724 60.81 121.628 60.9337 120.957 61.181C120.286 61.393 119.844 61.817 119.632 62.453C119.42 63.089 119.314 64.1137 119.314 65.527C119.314 66.799 119.438 67.7883 119.685 68.495C119.932 69.1663 120.374 69.661 121.01 69.979C121.646 70.2617 122.6 70.403 123.872 70.403H124.826ZM144.653 47.348H149.158V51.535C149.158 50.7223 149.511 49.9627 150.218 49.256C150.924 48.514 151.825 47.931 152.921 47.507C154.016 47.0477 155.094 46.818 156.154 46.818H158.486V50.899H155.836C153.574 50.899 151.931 51.1993 150.907 51.8C149.917 52.3653 149.423 53.4077 149.423 54.927V73H144.653V47.348ZM163.234 35.9H168.004V73H163.234V35.9ZM168.587 58.955L179.399 47.348H185.229L174.099 58.955L186.236 73H180.3L168.587 58.955ZM201.27 73.53C193.426 73.53 189.504 70.9153 189.504 65.686V55.563C189.504 52.4537 190.388 50.2277 192.154 48.885C193.956 47.507 196.854 46.818 200.846 46.818C204.627 46.818 207.348 47.4717 209.008 48.779C210.704 50.0863 211.552 52.3477 211.552 55.563V61.234H194.327V65.103C194.327 66.8697 194.946 68.1417 196.182 68.919C197.419 69.6963 199.327 70.085 201.906 70.085C204.344 70.085 207.224 69.661 210.545 68.813V72.47C207.295 73.1767 204.203 73.53 201.27 73.53ZM206.782 58.107V54.079C206.782 52.5243 206.305 51.4643 205.351 50.899C204.433 50.2983 202.843 49.998 200.581 49.998C198.391 49.998 196.801 50.2983 195.811 50.899C194.822 51.4643 194.327 52.5243 194.327 54.079V58.107H206.782ZM218.822 35.9H223.592V73H218.822V35.9ZM242.729 73.53C240.468 73.53 238.772 73.4417 237.641 73.265C236.511 73.1237 235.38 72.788 234.249 72.258C233.083 71.728 232.235 70.88 231.705 69.714C231.175 68.5127 230.91 66.905 230.91 64.891V55.987C230.91 54.397 231.105 53.0013 231.493 51.8C231.882 50.5987 232.394 49.6623 233.03 48.991C233.56 48.3903 234.355 47.931 235.415 47.613C236.511 47.2597 237.624 47.03 238.754 46.924C240.026 46.8533 241.351 46.818 242.729 46.818C244.567 46.818 245.945 46.871 246.863 46.977C247.817 47.0477 248.824 47.2243 249.884 47.507C250.98 47.825 251.828 48.302 252.428 48.938C253.029 49.574 253.541 50.4927 253.965 51.694C254.354 52.9307 254.548 54.3617 254.548 55.987V64.891C254.548 67.8943 253.859 70.085 252.481 71.463C251.916 72.0283 251.103 72.47 250.043 72.788C248.983 73.106 247.888 73.318 246.757 73.424C245.415 73.4947 244.072 73.53 242.729 73.53ZM242.729 70.403C244.213 70.403 245.291 70.3677 245.962 70.297C246.634 70.2263 247.287 70.032 247.923 69.714C248.559 69.4313 249.001 68.972 249.248 68.336C249.531 67.6647 249.672 66.746 249.672 65.58V55.192C249.672 53.602 249.478 52.4537 249.089 51.747C248.701 51.005 248.029 50.528 247.075 50.316C246.157 50.0687 244.708 49.945 242.729 49.945C240.751 49.945 239.284 50.0687 238.33 50.316C237.412 50.528 236.758 51.005 236.369 51.747C235.981 52.4537 235.786 53.602 235.786 55.192V65.58C235.786 66.746 235.91 67.6647 236.157 68.336C236.44 68.972 236.899 69.4313 237.535 69.714C238.171 70.032 238.825 70.2263 239.496 70.297C240.168 70.3677 241.245 70.403 242.729 70.403ZM264.267 50.475H258.384V47.348H264.267V43.214C264.267 40.2813 264.903 38.2497 266.175 37.119C267.482 35.953 269.673 35.37 272.747 35.37C274.655 35.37 276.439 35.4583 278.1 35.635V38.709C276.757 38.5323 275.556 38.444 274.496 38.444C272.976 38.444 271.828 38.5677 271.051 38.815C270.309 39.0623 269.779 39.504 269.461 40.14C269.178 40.7407 269.037 41.6593 269.037 42.896V47.348H281.598V43.214C281.598 40.2813 282.234 38.2497 283.506 37.119C284.813 35.953 287.004 35.37 290.078 35.37C291.986 35.37 293.77 35.4583 295.431 35.635V38.709C294.088 38.5323 292.887 38.444 291.827 38.444C290.307 38.444 289.159 38.5677 288.382 38.815C287.64 39.0623 287.11 39.504 286.792 40.14C286.509 40.7407 286.368 41.6593 286.368 42.896V47.348H295.431V50.475H286.368V73H281.598V50.475H269.037V73H264.267V50.475Z" fill="#333"/>
</svg>
