<svg width="48" height="48" viewBox="0 0 48 48" fill="none" xmlns="http://www.w3.org/2000/svg">
<path d="M48 24C48 10.7458 37.2552 3.8147e-06 24.0007 3.8147e-06C10.7447 3.8147e-06 0 10.7458 0 24C0 35.979 8.77624 45.9067 20.2495 47.7083V30.9364H14.1568V24H20.2495V18.7119C20.2495 12.6966 23.8338 9.37427 29.3161 9.37427C31.9412 9.37427 34.6871 9.84365 34.6871 9.84365V15.749H31.6618C28.6798 15.749 27.7505 17.5994 27.7505 19.4974V24H34.4063L33.3426 30.9364H27.7505V47.7083C39.2238 45.9067 48 35.979 48 24Z" fill="#3870C0"/>
<path d="M33.3426 30.9364L34.4062 24H27.7505V19.4974C27.7505 17.5995 28.6798 15.7491 31.6617 15.7491H34.6871V9.84367C34.6871 9.84367 31.9412 9.37429 29.3161 9.37429C23.8338 9.37429 20.2495 12.6967 20.2495 18.7119V24H14.1567V30.9364H20.2495V47.7083C21.4718 47.8996 22.724 48 24.0006 48C25.2759 48 26.5281 47.8996 27.7505 47.7083V30.9364H33.3426Z" fill="white"/>
</svg>
