<svg width="48" height="48" viewBox="0 0 48 48" fill="none" xmlns="http://www.w3.org/2000/svg">
<path d="M23.9993 2.35091e-06C10.7447 2.35091e-06 0 10.7458 0 24.0014C0 33.7636 5.83906 42.1489 14.2069 45.8972C14.1785 45.223 14.15 44.5487 14.1717 43.8718C14.2504 41.537 14.538 40.7366 17.5471 28.0821C17.5918 27.8894 17.543 27.7293 17.4779 27.5557C16.7588 25.6117 16.615 23.6405 17.2445 21.6408C18.6066 17.3268 23.4987 16.9958 24.3548 20.5569C24.8811 22.76 23.4879 25.6415 22.4175 29.9013C21.5316 33.4163 25.668 35.9152 29.2048 33.3485C32.4676 30.9839 33.732 25.3118 33.4932 21.2935C33.0184 13.2786 24.2299 11.5462 18.6541 14.1265C12.2629 17.0826 10.8099 25.0066 13.6955 28.6261C14.0618 29.0873 14.344 29.3682 14.2232 29.8348C14.0374 30.5606 13.8732 31.2905 13.6724 32.0122C13.5232 32.5481 13.0742 32.7434 12.5328 32.5236C11.4679 32.0936 10.5819 31.4153 9.86291 30.5226C7.41143 27.4879 6.71141 21.4862 9.95247 16.4043C13.5422 10.7743 20.2183 8.49788 26.3165 9.1884C33.5977 10.0159 38.2008 14.9907 39.0637 20.6356C39.4557 23.2077 39.1722 29.5472 35.5635 34.0281C31.4108 39.1779 24.6804 39.5184 21.5736 36.3588C21.3348 36.116 21.1436 35.8311 20.9089 35.5421C20.8749 35.6588 20.8424 35.7578 20.8179 35.8555C19.327 41.6971 19.1615 42.9941 17.6298 45.7073C17.3924 46.1224 17.1319 46.5213 16.8768 46.9242C19.1275 47.6242 21.5193 48 23.9993 48C37.2552 48 48 37.2556 48 24.0014C48 10.7458 37.2552 2.35091e-06 23.9993 2.35091e-06" fill="#EF2F36"/>
<path d="M20.818 35.8555C20.8424 35.7578 20.875 35.6588 20.9089 35.5421C21.1436 35.8311 21.3349 36.116 21.5736 36.3588C24.6804 39.5184 31.4108 39.1779 35.5635 34.0281C39.1722 29.5472 39.4558 23.2077 39.0637 20.6356C38.2008 14.9907 33.5977 10.0159 26.3165 9.1884C20.2183 8.49788 13.5422 10.7743 9.95249 16.4043C6.71143 21.4862 7.41144 27.4879 9.86293 30.5226C10.582 31.4153 11.4679 32.0936 12.5329 32.5237C13.0742 32.7434 13.5232 32.5481 13.6724 32.0122C13.8732 31.2905 14.0374 30.5606 14.2233 29.8348C14.344 29.3682 14.0618 29.0873 13.6955 28.6261C10.8099 25.0066 12.2629 17.0826 18.6541 14.1265C24.23 11.5462 33.0184 13.2786 33.4933 21.2935C33.732 25.3118 32.4676 30.9839 29.2048 33.3485C25.668 35.9152 21.5316 33.4163 22.4175 29.9013C23.4879 25.6415 24.8812 22.7601 24.3548 20.5569C23.4987 16.9958 18.6066 17.3268 17.2445 21.6408C16.615 23.6405 16.7589 25.6117 17.4779 27.5557C17.543 27.7294 17.5918 27.8894 17.5471 28.0821C14.538 40.7366 14.2504 41.537 14.1717 43.8718C14.15 44.5487 14.1785 45.223 14.207 45.8972C15.0739 46.2852 15.9584 46.6393 16.8769 46.9242C17.1319 46.5213 17.3924 46.1224 17.6298 45.7073C19.1615 42.9941 19.327 41.6971 20.818 35.8555" fill="white"/>
</svg>
