<svg width="48" height="48" viewBox="0 0 48 48" fill="none" xmlns="http://www.w3.org/2000/svg">
<path d="M48 24C48 37.2542 37.2552 48 24.0007 48C10.7447 48 0 37.2542 0 24C0 10.7444 10.7447 3.8147e-06 24.0007 3.8147e-06C37.2552 3.8147e-06 48 10.7444 48 24Z" fill="#2FBBE1"/>
<path d="M37.2606 15.7762C36.429 16.1519 35.5106 16.3798 34.6138 16.5304C35.0385 16.4599 35.6639 15.6893 35.9149 15.3773C36.2974 14.9011 36.6149 14.3598 36.794 13.7751C36.8157 13.729 36.8333 13.672 36.7872 13.6368C36.7302 13.6137 36.6936 13.6259 36.6475 13.649C35.6463 14.1848 34.6111 14.5742 33.5081 14.8496C33.4172 14.8726 33.3494 14.8496 33.2924 14.7926C33.2015 14.6895 33.1147 14.5918 33.0184 14.5118C32.5544 14.117 32.0579 13.809 31.4976 13.5798C30.7609 13.28 29.9578 13.1538 29.1655 13.2053C28.3949 13.2555 27.6379 13.4726 26.9527 13.8294C26.2676 14.1875 25.6558 14.6854 25.1688 15.2878C24.6654 15.9091 24.2937 16.643 24.1024 17.4217C23.9193 18.1733 23.9342 18.9167 24.0468 19.6751C24.0631 19.8013 24.0522 19.8189 23.9383 19.8012C19.6268 19.1596 16.0547 17.6185 13.1528 14.3124C13.028 14.1686 12.9588 14.1685 12.8557 14.3232C11.5872 16.2265 12.2032 19.283 13.7877 20.7848C13.9994 20.9856 14.2178 21.185 14.4511 21.3682C14.3657 21.3858 13.3102 21.2705 12.37 20.7848C12.2438 20.7048 12.1814 20.7509 12.1692 20.8933C12.1584 21.0995 12.176 21.2881 12.2045 21.512C12.4473 23.4397 13.7837 25.2237 15.6124 25.9196C15.8295 26.0119 16.0696 26.0919 16.3043 26.1312C15.8878 26.2221 15.4578 26.2886 14.2626 26.1936C14.1133 26.1651 14.0564 26.2398 14.1133 26.3822C15.0128 28.8309 16.9501 29.5594 18.4031 29.9732C18.5971 30.0085 18.7911 30.0085 18.9864 30.0532C18.9742 30.0709 18.9634 30.0709 18.9512 30.0872C18.4696 30.8225 16.8009 31.3692 16.0235 31.6405C14.6085 32.1343 13.0687 32.3568 11.575 32.2089C11.3363 32.175 11.2847 32.1763 11.2209 32.2089C11.1544 32.2496 11.2128 32.3079 11.2888 32.369C11.5926 32.5698 11.902 32.7461 12.2154 32.9184C13.165 33.4217 14.154 33.8219 15.1892 34.1082C20.5317 35.5842 26.5512 34.4989 30.5628 30.5131C33.7144 27.382 34.8187 23.0653 34.8187 18.7431C34.8187 18.5749 35.0181 18.4813 35.1375 18.3917C35.9569 17.7758 36.6176 17.0392 37.2294 16.2157C37.3665 16.0312 37.3678 15.867 37.3678 15.7992C37.3678 15.787 37.3678 15.7762 37.3678 15.7762C37.3678 15.707 37.3665 15.7287 37.2606 15.7762Z" fill="white"/>
</svg>
